<svg width="370" height="400" viewBox="0 0 370 400" fill="none" xmlns="http://www.w3.org/2000/svg">
<g clip-path="url(#clip0_16_404)">
<path d="M288.045 346.49L103.422 293.087C102.328 292.769 101.402 292.038 100.847 291.054C100.293 290.07 100.155 288.914 100.465 287.839L175.509 28.3973C175.821 27.3229 176.555 26.4184 177.549 25.8824C178.543 25.3464 179.716 25.2225 180.811 25.538L365.435 78.9409C366.529 79.2588 367.455 79.9899 368.01 80.9738C368.564 81.9577 368.701 83.1141 368.392 84.1892L293.348 343.631C293.035 344.705 292.302 345.609 291.308 346.145C290.314 346.681 289.14 346.805 288.045 346.49Z" fill="#3F3D56" fill-opacity="0.5"/>
<path d="M285.262 341.55L108.412 290.396C107.318 290.078 106.392 289.347 105.838 288.363C105.283 287.379 105.146 286.223 105.455 285.148L178.292 33.3368C178.604 32.2624 179.338 31.358 180.332 30.822C181.326 30.286 182.499 30.1621 183.595 30.4776L360.444 81.6319C361.539 81.9498 362.465 82.6809 363.019 83.6648C363.574 84.6487 363.711 85.8051 363.401 86.8802L290.564 338.691C290.252 339.765 289.519 340.67 288.525 341.206C287.531 341.742 286.357 341.866 285.262 341.55Z" fill="white"/>
<path d="M160.607 291.185C150.771 266.249 163.74 244.787 159.218 225.89C141.887 153.464 183.727 171.777 229.406 198.099L229.135 199.475C196.463 195.163 171.305 205.022 160.11 226.523C151.41 243.232 151.941 265.929 161.605 290.431L160.607 291.185Z" fill="#F0F0F0"/>
<path d="M217.109 225.313L217.15 223.939C236.971 221.203 242.195 197.49 259.444 196.719C390.838 190.845 274.02 152.107 253.642 123.002C235.419 96.9751 215.963 67.2156 186.367 46.2266L187.008 44.9968C216.732 66.0779 240.738 93.4826 254.603 122.163C268.537 150.986 270.573 177.689 260.336 197.351C252.263 212.856 237.315 222.525 217.109 225.313Z" fill="#F0F0F0"/>
<path d="M182.284 166.622C174.439 163.679 185.416 161.205 188.329 153.511C189.021 151.681 190.073 150.006 191.427 148.583C192.781 147.16 194.408 146.016 196.217 145.217C198.026 144.417 199.981 143.978 201.97 143.925C203.959 143.871 205.943 144.204 207.809 144.904C209.675 145.604 211.386 146.658 212.844 148.005C214.303 149.352 215.481 150.966 216.31 152.756C217.139 154.545 217.603 156.474 217.677 158.432C217.75 160.391 217.431 162.341 216.737 164.17C213.825 171.864 190.129 169.566 182.284 166.622Z" fill="#F50057" fill-opacity="0.5"/>
<path d="M273.521 139.869C271.655 139.169 269.945 138.115 268.486 136.769C267.028 135.422 265.851 133.808 265.021 132.02C264.192 130.231 263.727 128.303 263.653 126.345C263.579 124.387 263.897 122.437 264.59 120.608C267.502 112.914 253.09 103.035 260.935 105.979C268.78 108.922 295.911 123.573 292.999 131.267C292.306 133.097 291.253 134.77 289.899 136.193C288.546 137.615 286.918 138.758 285.109 139.557C283.301 140.356 281.346 140.794 279.358 140.848C277.37 140.901 275.386 140.569 273.521 139.869Z" fill="#F50057" fill-opacity="0.5"/>
<path d="M296.279 126.993C296.714 129.452 295.371 131.76 293.436 133.215C291.236 134.871 288.407 135.182 285.716 134.777C282.837 134.304 280.081 133.259 277.616 131.708C275.234 130.222 272.997 127.868 273.276 124.899C273.462 122.92 274.856 121.153 276.991 121.207C277.844 121.24 278.677 121.489 279.408 121.929C280.139 122.369 280.745 122.986 281.167 123.721C282.327 125.881 281.42 128.547 279.808 130.199C277.911 132.143 275.079 132.699 272.424 132.385C269.267 132.011 266.441 130.44 263.893 128.631C261.124 126.664 258.523 124.461 255.861 122.357C250.669 118.255 245.308 114.262 239.255 111.476C230.008 107.219 217.875 106.173 209.549 112.782C205.055 116.35 202.52 121.721 201.658 127.28C200.748 133.141 201.772 139.065 203.787 144.632C204.867 147.537 206.144 150.368 207.609 153.107C208.1 153.951 208.327 154.917 208.26 155.882C208.194 156.847 207.837 157.768 207.235 158.528C204.122 162.42 197.198 158.89 197.97 154.173C198.321 152.03 200.116 150.237 201.993 149.258C204.106 148.208 206.499 147.816 208.857 148.134C213.839 148.73 218.367 151.916 221.134 155.975C224.259 160.561 225.079 166.394 224.843 171.772C224.575 177.896 222.943 183.802 221.383 189.69C219.786 195.715 218.266 201.839 218.344 208.123C218.422 213.185 219.349 218.208 221.089 222.988C224.543 232.604 231.002 240.921 239.533 246.737C241.603 248.123 243.785 249.337 246.057 250.366C246.946 250.769 247.47 249.375 246.584 248.973C236.683 244.479 228.767 236.236 224.196 226.546C221.9 221.707 220.481 216.518 220.002 211.214C219.444 204.831 220.645 198.57 222.227 192.425C223.842 186.148 225.759 179.898 226.263 173.401C226.708 167.657 226.095 161.532 223.161 156.405C220.574 151.884 216.055 148.242 210.907 147.004C206.116 145.851 200.321 146.945 197.546 151.274C196.244 153.305 195.973 155.812 197.224 157.962C197.944 159.165 198.986 160.151 200.235 160.811C201.484 161.47 202.891 161.779 204.3 161.701C205.86 161.513 207.288 160.759 208.306 159.587C209.323 158.414 209.857 156.907 209.804 155.358C209.715 154.206 209.362 153.087 208.77 152.085C205.798 146.379 203.331 140.243 202.891 133.806C202.48 127.802 203.881 121.438 207.729 116.695C215.014 107.716 228.456 108.273 238.269 112.661C244.69 115.532 250.307 119.852 255.77 124.189C258.56 126.404 261.288 128.758 264.283 130.702C266.965 132.442 269.99 133.802 273.229 133.947C276.057 134.075 278.922 133.269 280.901 131.226C282.698 129.37 283.703 126.647 282.941 124.099C281.839 120.416 276.52 118.12 273.499 121.026C271.495 122.953 271.294 126.106 272.492 128.532C273.835 131.253 276.525 132.983 279.214 134.241C284.295 136.619 291.041 137.857 295.382 133.519C297.17 131.732 298.22 129.289 297.772 126.75C297.731 126.56 297.618 126.393 297.455 126.283C297.292 126.173 297.093 126.129 296.899 126.16C296.705 126.192 296.532 126.296 296.417 126.452C296.301 126.607 296.252 126.801 296.279 126.993Z" fill="#3F3D56" fill-opacity="0.5"/>
<path d="M242.263 249.584C233.944 246.462 207.884 251.311 203.147 244.612C202.554 243.779 201.994 242.924 201.468 242.046C199.74 239.197 198.366 236.157 197.375 232.991C197.2 232.453 197.041 231.916 196.893 231.378C196.376 229.469 195.996 227.528 195.756 225.568C195.717 225.214 195.68 224.856 195.642 224.497C194.72 214.701 197.354 204.935 203.077 196.937C208.8 188.939 217.241 183.227 226.896 180.818C236.552 178.409 246.797 179.459 255.807 183.782C264.818 188.104 272.01 195.419 276.104 204.423C276.324 204.899 276.532 205.379 276.731 205.868C278.728 210.72 279.777 215.891 279.824 221.108C279.822 221.113 279.827 221.115 279.825 221.119C279.884 228.94 277.707 236.597 273.543 243.215L273.539 243.225C273.446 243.37 273.354 243.516 273.256 243.659C262.834 259.779 261.273 256.717 242.263 249.584Z" fill="#F50057" fill-opacity="0.5"/>
<path d="M195.934 225.641C195.872 225.624 195.812 225.599 195.756 225.568C195.717 225.214 195.68 224.856 195.642 224.497C195.736 224.378 195.865 224.291 196.011 224.246C196.158 224.202 196.315 224.202 196.461 224.248C197.199 224.458 197.957 224.588 198.721 224.634C205.354 225.054 210.798 219.842 213.972 214.701C217.861 208.412 220.014 201.069 225.312 195.686C227.412 193.451 230.038 191.759 232.964 190.756C236.148 189.752 239.609 189.945 242.681 191.299C249.918 194.45 253.763 201.72 260.067 206.08C262.663 207.876 265.656 208.999 268.849 208.733C271.562 208.51 274.322 207.318 275.59 204.825C275.638 204.723 275.709 204.633 275.798 204.564C275.887 204.494 275.992 204.446 276.104 204.424C276.324 204.899 276.532 205.379 276.731 205.868C276.481 206.312 276.184 206.728 275.844 207.11C273.887 209.282 270.968 210.207 268.068 210.254C264.713 210.305 261.609 209.018 258.914 207.095C252.631 202.611 248.636 194.865 241.022 192.252C234.423 189.988 228.234 194.051 224.377 199.042C219.606 205.217 217.754 213.151 212.676 219.126C208.679 223.826 202.342 227.467 195.934 225.641Z" fill="#3F3D56" fill-opacity="0.5"/>
<path d="M197.375 232.991C197.2 232.453 197.041 231.916 196.893 231.378C196.976 231.345 197.066 231.329 197.156 231.333C197.246 231.336 197.334 231.359 197.415 231.399C203.452 233.929 210.22 234.103 216.335 231.885C219.011 230.935 221.501 229.546 223.698 227.775C225.986 225.918 227.717 223.587 229.558 221.324C231.369 219.097 233.375 216.896 236.048 215.677C238.773 214.435 241.817 214.463 244.695 215.204C251.513 216.961 256.318 222.439 262.673 225.121C265.508 226.317 268.542 226.744 271.52 225.863C274.091 225.098 276.3 223.376 276.955 220.732C277.167 219.857 278.433 220.284 278.4 221.099C278.398 221.155 278.389 221.211 278.375 221.265C277.611 224.34 274.953 226.392 271.979 227.276C268.523 228.307 264.984 227.786 261.714 226.325C255.388 223.496 250.427 217.816 243.435 216.433C241.98 216.1 240.473 216.071 239.012 216.348C237.551 216.625 236.168 217.201 234.954 218.04C232.504 219.783 230.756 222.272 228.89 224.573C227.081 226.889 224.906 228.904 222.446 230.54C219.979 232.118 217.268 233.296 214.415 234.028C208.79 235.514 202.808 235.15 197.375 232.991Z" fill="#3F3D56" fill-opacity="0.5"/>
<path d="M203.147 244.612C202.554 243.78 201.994 242.924 201.468 242.047C204.912 244.048 208.734 245.325 212.691 245.796C217.661 246.422 222.698 245.806 227.336 244.005C229.649 243.098 231.814 241.867 233.765 240.35C235.991 238.613 238.082 236.587 240.901 235.826C247.019 234.176 252.415 238.862 257.164 241.917C259.641 243.515 262.396 244.909 265.419 244.807C267.763 244.727 270.291 243.777 271.378 241.608C271.803 240.754 273.23 241.284 272.798 242.14C272.716 242.301 272.629 242.459 272.537 242.615C271.149 244.911 268.555 246.106 265.855 246.27C262.332 246.476 259.175 244.989 256.275 243.121C251.507 240.049 245.613 234.862 239.608 237.928C237.074 239.221 235.12 241.399 232.732 242.921C230.6 244.288 228.285 245.361 225.853 246.11C218.385 248.4 210.292 247.866 203.147 244.612Z" fill="#3F3D56" fill-opacity="0.5"/>
<path d="M275.642 375.72L241.146 365.742C240.052 365.424 239.126 364.693 238.571 363.709C238.017 362.725 237.879 361.569 238.189 360.494L241.638 348.571C241.95 347.496 242.683 346.592 243.677 346.056C244.671 345.52 245.845 345.396 246.94 345.712L281.435 355.69C282.53 356.007 283.456 356.739 284.01 357.722C284.565 358.706 284.702 359.863 284.393 360.938L280.944 372.861C280.632 373.935 279.898 374.839 278.904 375.376C277.91 375.912 276.737 376.035 275.642 375.72Z" fill="#E6E6E6"/>
<path d="M45.8264 318.684C45.4621 318.596 45.1329 318.4 44.8835 318.123C44.634 317.846 44.4763 317.501 44.4318 317.135C44.3872 316.769 44.4579 316.4 44.6343 316.076C44.8107 315.753 45.0843 315.492 45.418 315.329C45.5122 315.169 45.5799 315.054 45.6741 314.894C45.6691 314.852 45.664 314.81 45.6589 314.768C45.5396 313.823 45.1397 312.932 44.5095 312.205C43.8793 311.478 43.0469 310.949 42.1168 310.684C41.1867 310.418 40.2004 310.429 39.2818 310.713C38.3632 310.998 37.5533 311.545 36.9537 312.284C34.5588 315.235 31.7737 318.08 30.2995 321.506C29.6486 323.021 29.2706 324.638 29.1824 326.285C27.9109 318.166 28.425 309.89 30.6899 302.018C31.2604 300.043 31.9428 298.102 32.7341 296.205C33.3843 294.65 34.1028 293.127 34.8896 291.636C39.1689 283.549 45.3458 276.597 52.9131 271.349C56.0334 270.683 58.862 269.09 61.0178 266.784C61.7965 265.956 62.4484 265.02 62.9529 264.006C62.6368 263.957 62.3199 263.892 62.0095 263.823C61.9131 263.8 61.8118 263.776 61.7154 263.754L61.6792 263.745C61.3399 263.663 61.0311 263.486 60.7898 263.236C60.5485 262.986 60.3851 262.674 60.3191 262.336C60.2532 261.999 60.2876 261.651 60.4182 261.334C60.5488 261.017 60.7701 260.745 61.0553 260.55C61.2329 260.43 61.4105 260.309 61.5882 260.188C61.859 260.001 62.1333 259.82 62.4041 259.632C62.4339 259.616 62.4627 259.597 62.4904 259.577C62.8011 259.364 63.1103 259.156 63.4211 258.943C63.1864 258.183 62.777 257.484 62.2248 256.902C60.3045 254.911 56.8615 254.909 54.6061 256.473C52.3458 258.036 51.2011 260.814 51.0415 263.536C50.9826 265.876 51.3286 268.211 52.0648 270.444C51.8944 270.565 51.7205 270.679 51.5502 270.8C48.4332 273.022 45.5479 275.541 42.9357 278.322C44.3988 274.783 44.9843 270.945 44.6439 267.123C44.2178 263.529 42.4632 260.099 41.0318 256.685C39.3125 252.584 33.3946 252.445 31.703 256.524C31.6866 256.563 31.6703 256.603 31.6542 256.642C31.9326 256.922 32.2008 257.211 32.4587 257.509C32.7819 257.886 32.9829 258.349 33.0353 258.838C33.0877 259.326 32.989 259.818 32.7523 260.248C32.5155 260.677 32.1516 261.025 31.7084 261.246C31.2652 261.467 30.7632 261.55 30.2683 261.485L30.2176 261.478C29.9964 262.685 29.869 263.908 29.8363 265.136C29.7767 268.573 30.4392 271.992 31.7823 275.18C33.1254 278.367 35.1202 281.253 37.6415 283.657C37.808 283.811 37.9695 283.964 38.1374 284.114C35.1125 288.292 32.6562 292.845 30.8303 297.658C29.7626 300.5 28.9311 303.425 28.3437 306.404L28.3585 306.297C28.6535 302.881 27.7409 299.457 25.7746 296.605C22.8412 292.413 17.7647 289.714 14.3546 286.04C13.996 285.637 13.5286 285.342 13.0077 285.19C12.4868 285.038 11.9341 285.035 11.4147 285.182C10.8954 285.329 10.431 285.62 10.0765 286.02C9.72196 286.42 9.492 286.912 9.41375 287.439C9.40884 287.477 9.40404 287.515 9.39933 287.552C9.94344 287.976 10.4605 288.433 10.9476 288.92C11.226 289.199 11.4942 289.488 11.7521 289.786C12.0754 290.163 12.2764 290.626 12.3287 291.115C12.3811 291.604 12.2825 292.095 12.0457 292.525C11.8089 292.955 11.4451 293.303 11.0018 293.523C10.5586 293.744 10.0566 293.827 9.5617 293.762L9.51099 293.755C9.47459 293.75 9.4432 293.746 9.40684 293.741C9.7454 296.509 10.5649 299.204 11.8294 301.707C13.4056 304.751 15.5936 307.451 18.2592 309.643C20.9247 311.836 24.0116 313.473 27.3306 314.456L27.3356 314.457C27.1245 318.568 27.3483 322.694 28.0033 326.768L41.9431 330.8C42.0371 330.662 42.1275 330.518 42.2164 330.379C40.9031 330.086 39.6296 329.635 38.4244 329.038C39.819 328.092 41.2164 327.135 42.611 326.189C42.6408 326.172 42.6696 326.154 42.6973 326.134C43.4063 325.648 44.1189 325.169 44.828 324.683L44.8285 324.682C45.4217 322.736 45.7573 320.72 45.8267 318.684L45.8264 318.684Z" fill="#F2F2F2"/>
</g>
<defs>
<clipPath id="clip0_16_404">
<rect width="288.399" height="332.977" fill="white" transform="translate(92.5219) rotate(16.1327)"/>
</clipPath>
</defs>
</svg>
