<svg width="18" height="18" viewBox="0 0 18 18" fill="none" xmlns="http://www.w3.org/2000/svg">
<g clip-path="url(#clip0_13_938)">
<path d="M10.875 18C10.6713 18.0003 10.4713 17.9448 10.2968 17.8395L6.54679 15.5895C6.38013 15.4896 6.24217 15.3483 6.14636 15.1793C6.05054 15.0103 6.00013 14.8193 6.00004 14.625V10.7513L1.52554 5.27625C1.02173 4.69831 0.746002 3.95645 0.750044 3.18975C0.751036 2.34408 1.08742 1.53333 1.6854 0.935352C2.28338 0.337373 3.09412 0.000992455 3.93979 0L14.0603 0C14.6752 0.000223831 15.2769 0.17811 15.793 0.512256C16.3091 0.846401 16.7177 1.32257 16.9696 1.88347C17.2215 2.44437 17.306 3.06611 17.2128 3.67387C17.1196 4.28164 16.8529 4.84954 16.4445 5.30925L12 10.7865V16.875C12 17.1734 11.8815 17.4595 11.6705 17.6705C11.4596 17.8815 11.1734 18 10.875 18ZM8.25004 13.9875L9.75004 14.8875V10.3875C9.74985 10.1292 9.83857 9.87864 10.0013 9.678L14.73 3.85275C14.9003 3.67361 14.9967 3.43686 15 3.18975C14.9996 2.94063 14.9005 2.70184 14.7244 2.52568C14.5482 2.34953 14.3094 2.2504 14.0603 2.25H3.93979C3.75866 2.25018 3.58143 2.30266 3.4294 2.40114C3.27737 2.49962 3.15702 2.6399 3.0828 2.80513C3.00858 2.97037 2.98365 3.15351 3.01102 3.33257C3.03838 3.51163 3.11686 3.67897 3.23704 3.8145L7.99654 9.63825C8.16057 9.83918 8.25012 10.0906 8.25004 10.35V13.9875Z" fill="#A2004E"/>
</g>
<defs>
<clipPath id="clip0_13_938">
<rect width="18" height="18" fill="white"/>
</clipPath>
</defs>
</svg>
