<svg width="146" height="30" viewBox="0 0 146 30" fill="none" xmlns="http://www.w3.org/2000/svg">
<path d="M29.28 0.679993C28.9333 1.61333 28.6533 2.41333 28.44 3.07999C28.2267 3.71999 28 4.49333 27.76 5.39999C27.6 6.06666 27.44 6.69333 27.28 7.27999C27.1467 7.83999 27.0267 8.35999 26.92 8.83999H26.04C26.2267 6.99999 26.1467 5.55999 25.8 4.51999C25.48 3.45333 24.9467 2.70666 24.2 2.27999C23.48 1.82666 22.5867 1.59999 21.52 1.59999C21.3867 1.59999 21.2533 1.59999 21.12 1.59999C20.9867 1.59999 20.8667 1.59999 20.76 1.59999C19.96 1.59999 19.32 1.67999 18.84 1.83999C18.3867 1.97333 18.0267 2.27999 17.76 2.75999C17.4933 3.21332 17.24 3.93332 17 4.91999L11.72 24.76C11.5867 25.2933 11.48 25.8133 11.4 26.32C11.3467 26.8267 11.44 27.2533 11.68 27.6C11.92 27.92 12.4133 28.08 13.16 28.08C14.5733 28.08 15.7733 27.6533 16.76 26.8C17.7467 25.92 18.5067 24.7867 19.04 23.4C19.6 21.9867 19.88 20.48 19.88 18.88C19.88 17.9733 19.7467 17.2133 19.48 16.6C19.2133 15.96 18.7333 15.48 18.04 15.16C17.3733 14.8133 16.44 14.64 15.24 14.64H12.64L12.8 13.96H16.64C18.7467 13.96 20.4933 14.0933 21.88 14.36C23.2667 14.6267 24.36 15.0133 25.16 15.52C25.9867 16.0267 26.56 16.6267 26.88 17.32C27.2267 18.0133 27.4 18.7733 27.4 19.6C27.4 21.0667 27.0533 22.3867 26.36 23.56C25.6667 24.7067 24.7067 25.6933 23.48 26.52C22.2533 27.32 20.8133 27.9333 19.16 28.36C17.5333 28.7867 15.7733 29 13.88 29C13.1333 29 12.2133 28.9867 11.12 28.96C10.0267 28.9067 8.6 28.88 6.84 28.88C6.14666 28.88 5.38666 28.8933 4.56 28.92C3.73333 28.92 2.93333 28.9333 2.16 28.96C1.38666 28.96 0.73333 28.9733 0.199997 29L0.359997 28.2C1.26666 28.1467 1.97333 28.04 2.48 27.88C2.98666 27.72 3.38666 27.4 3.68 26.92C3.97333 26.44 4.24 25.72 4.48 24.76L9.76 4.91999C10.0267 3.93332 10.1333 3.21332 10.08 2.75999C10.0267 2.27999 9.78666 1.95999 9.36 1.79999C8.96 1.61333 8.30666 1.50666 7.4 1.47999L7.6 0.679993C8.37333 0.706659 9.17333 0.733325 10 0.759992C10.8267 0.786658 11.6 0.799991 12.32 0.799991C13.0667 0.799991 13.7067 0.799991 14.24 0.799991C15.28 0.799991 16.4267 0.799991 17.68 0.799991C18.96 0.799991 20.0667 0.799991 21 0.799991C22.2267 0.799991 23.6 0.799991 25.12 0.799991C26.64 0.773325 28.0267 0.733325 29.28 0.679993Z" fill="#960048"/>
<path d="M36.3141 28.84C37.4874 28.84 38.4741 28.5467 39.2741 27.96C40.0741 27.3467 40.8474 26.5067 41.5941 25.44C42.3407 24.3467 43.1674 23.0533 44.0741 21.56C44.0741 21.56 44.2341 21.56 44.5541 21.56C44.9007 21.56 45.0741 21.56 45.0741 21.56C44.3274 22.6533 43.6474 23.68 43.0341 24.64C42.4474 25.6 41.8474 26.4533 41.2341 27.2C40.6474 27.9467 39.9541 28.5333 39.1541 28.96C38.3807 29.36 37.4474 29.56 36.3541 29.56C34.8074 29.56 33.5941 29.2133 32.7141 28.52C31.8607 27.8267 31.4341 26.9333 31.4341 25.84C31.4074 24.6933 31.7807 23.7733 32.5541 23.08C33.3541 22.36 34.3141 22 35.4341 22C36.4207 22 37.1941 22.24 37.7541 22.72C38.3407 23.2 38.6341 23.8533 38.6341 24.68C38.6341 25.7467 38.2874 26.6267 37.5941 27.32C36.9007 27.9867 36.0341 28.4267 34.9941 28.64C35.1541 28.6933 35.3274 28.7467 35.5141 28.8C35.7274 28.8267 35.9941 28.84 36.3141 28.84ZM42.6741 25.24L42.2741 24.92L34.8741 4.55999C34.6341 3.86666 34.3807 3.31999 34.1141 2.91999C33.8741 2.51999 33.5941 2.21332 33.2741 1.99999C32.9807 1.78666 32.6341 1.61333 32.2341 1.47999L32.4341 0.679993C33.1807 0.706659 34.1541 0.733325 35.3541 0.759992C36.5807 0.786658 37.7941 0.799991 38.9941 0.799991C40.2474 0.799991 41.3007 0.786658 42.1541 0.759992C43.0341 0.733325 43.8341 0.706659 44.5541 0.679993L44.3541 1.47999C43.4474 1.53332 42.7807 1.65332 42.3541 1.83999C41.9541 1.99999 41.7541 2.30666 41.7541 2.75999C41.7541 3.18666 41.9141 3.85332 42.2341 4.75999L46.9941 18.12L42.3541 24.28L54.6341 5.71999C55.3007 4.73333 55.6074 3.94666 55.5541 3.35999C55.5274 2.74666 55.2207 2.30666 54.6341 2.03999C54.0741 1.74666 53.2741 1.55999 52.2341 1.47999L52.4341 0.679993C52.7007 0.706659 53.1541 0.733325 53.7941 0.759992C54.4341 0.759992 55.1274 0.773325 55.8741 0.799991C56.6207 0.799991 57.2341 0.799991 57.7141 0.799991C58.8341 0.799991 59.8074 0.759992 60.6341 0.679993L60.4341 1.47999C59.8474 1.63999 59.3007 1.86666 58.7941 2.15999C58.3141 2.42666 57.8074 2.85333 57.2741 3.43999C56.7674 3.99999 56.1807 4.78666 55.5141 5.79999L42.6741 25.24Z" fill="#960048"/>
<path d="M82.9909 0.679993C82.6443 1.61333 82.3643 2.41333 82.1509 3.07999C81.9376 3.71999 81.7109 4.49333 81.4709 5.39999C81.3109 6.06666 81.1509 6.69333 80.9909 7.27999C80.8576 7.83999 80.7376 8.35999 80.6309 8.83999H79.7509C79.9376 6.99999 79.8576 5.55999 79.5109 4.51999C79.1909 3.45333 78.6576 2.70666 77.9109 2.27999C77.1909 1.82666 76.2976 1.59999 75.2309 1.59999C75.0976 1.59999 74.9643 1.59999 74.8309 1.59999C74.6976 1.59999 74.5776 1.59999 74.4709 1.59999C73.6709 1.59999 73.0309 1.67999 72.5509 1.83999C72.0976 1.97333 71.7376 2.27999 71.4709 2.75999C71.2043 3.21332 70.9509 3.93332 70.7109 4.91999L65.4309 24.76C65.2976 25.2933 65.1909 25.8133 65.1109 26.32C65.0576 26.8267 65.1509 27.2533 65.3909 27.6C65.6309 27.92 66.1243 28.08 66.8709 28.08C68.2843 28.08 69.4843 27.6533 70.4709 26.8C71.4576 25.92 72.2176 24.7867 72.7509 23.4C73.3109 21.9867 73.5909 20.48 73.5909 18.88C73.5909 17.9733 73.4576 17.2133 73.1909 16.6C72.9243 15.96 72.4443 15.48 71.7509 15.16C71.0843 14.8133 70.1509 14.64 68.9509 14.64H66.3509L66.5109 13.96H70.3509C72.4576 13.96 74.2043 14.0933 75.5909 14.36C76.9776 14.6267 78.0709 15.0133 78.8709 15.52C79.6976 16.0267 80.2709 16.6267 80.5909 17.32C80.9376 18.0133 81.1109 18.7733 81.1109 19.6C81.1109 21.0667 80.7643 22.3867 80.0709 23.56C79.3776 24.7067 78.4176 25.6933 77.1909 26.52C75.9643 27.32 74.5243 27.9333 72.8709 28.36C71.2443 28.7867 69.4843 29 67.5909 29C66.8443 29 65.9243 28.9867 64.8309 28.96C63.7376 28.9067 62.3109 28.88 60.5509 28.88C59.8576 28.88 59.0976 28.8933 58.2709 28.92C57.4443 28.92 56.6443 28.9333 55.8709 28.96C55.0976 28.96 54.4443 28.9733 53.9109 29L54.0709 28.2C54.9776 28.1467 55.6843 28.04 56.1909 27.88C56.6976 27.72 57.0976 27.4 57.3909 26.92C57.6843 26.44 57.9509 25.72 58.1909 24.76L63.4709 4.91999C63.7376 3.93332 63.8443 3.21332 63.7909 2.75999C63.7376 2.27999 63.4976 1.95999 63.0709 1.79999C62.6709 1.61333 62.0176 1.50666 61.1109 1.47999L61.3109 0.679993C62.0843 0.706659 62.8843 0.733325 63.7109 0.759992C64.5376 0.786658 65.3109 0.799991 66.0309 0.799991C66.7776 0.799991 67.4176 0.799991 67.9509 0.799991C68.9909 0.799991 70.1376 0.799991 71.3909 0.799991C72.6709 0.799991 73.7776 0.799991 74.7109 0.799991C75.9376 0.799991 77.3109 0.799991 78.8309 0.799991C80.3509 0.773325 81.7376 0.733325 82.9909 0.679993Z" fill="#960048"/>
<path d="M101.298 25.6C101.192 25.9733 101.112 26.3067 101.058 26.6C101.005 26.8667 101.018 27.08 101.098 27.24C101.205 27.3733 101.405 27.44 101.698 27.44C102.125 27.44 102.525 27.24 102.898 26.84C103.298 26.4133 103.685 25.6667 104.058 24.6L104.898 22.36H105.658L104.578 25.44C104.018 26.96 103.232 28.0267 102.218 28.64C101.232 29.2533 100.152 29.56 98.9784 29.56C98.0984 29.56 97.3784 29.4267 96.8184 29.16C96.2584 28.8933 95.8451 28.5467 95.5784 28.12C95.2318 27.56 95.0851 26.92 95.1384 26.2C95.1918 25.4533 95.3118 24.7067 95.4984 23.96L99.7784 8.27999C101.032 8.25332 102.192 8.19999 103.258 8.11999C104.352 8.03999 105.378 7.90666 106.338 7.71999L101.298 25.6ZM84.5384 28.84C85.3651 28.8133 86.0984 28.52 86.7384 27.96C87.4051 27.3733 87.9784 26.6267 88.4584 25.72C88.9651 24.7867 89.4051 23.7867 89.7784 22.72C90.1518 21.6267 90.4718 20.5733 90.7384 19.56C91.0051 18.5467 91.2318 17.6533 91.4184 16.88C91.8984 14.9867 92.3518 13.3733 92.7784 12.04C93.2318 10.68 93.7651 9.65333 94.3784 8.95999C94.9918 8.23999 95.7651 7.87999 96.6984 7.87999C97.7384 7.87999 98.4584 8.38666 98.8584 9.39999C99.2584 10.3867 99.2584 11.6267 98.8584 13.12L98.4184 13.36C98.6851 11.9467 98.6318 10.8133 98.2584 9.95999C97.9118 9.07999 97.3918 8.63999 96.6984 8.63999C96.0584 8.63999 95.5118 8.87999 95.0584 9.35999C94.6051 9.83999 94.2051 10.5067 93.8584 11.36C93.5384 12.1867 93.2318 13.1867 92.9384 14.36C92.6451 15.5067 92.3251 16.76 91.9784 18.12C91.6051 19.5867 91.1784 21.0533 90.6984 22.52C90.2184 23.9867 89.6451 25.3067 88.9784 26.48C88.3118 27.6267 87.4984 28.4667 86.5384 29C86.1118 29.24 85.6984 29.3867 85.2984 29.44C84.8984 29.52 84.5518 29.56 84.2584 29.56C83.0051 29.56 82.0718 29.2 81.4584 28.48C80.8451 27.76 80.5384 26.8933 80.5384 25.88C80.5384 24.7333 80.8984 23.84 81.6184 23.2C82.3384 22.5333 83.2051 22.2 84.2184 22.2C85.1518 22.2 85.8584 22.44 86.3384 22.92C86.8451 23.3733 87.0984 23.9733 87.0984 24.72C87.0984 25.5733 86.7918 26.36 86.1784 27.08C85.5918 27.7733 84.8718 28.32 84.0184 28.72C84.0451 28.7467 84.1118 28.7733 84.2184 28.8C84.3251 28.8267 84.4318 28.84 84.5384 28.84Z" fill="#960048"/>
<path d="M120.834 8.51999C120.301 8.51999 119.701 8.89332 119.034 9.63999C118.394 10.3867 117.754 11.3867 117.114 12.64C116.474 13.8933 115.888 15.2933 115.354 16.84C114.821 18.3867 114.394 19.9733 114.074 21.6C113.754 23.2267 113.594 24.7867 113.594 26.28C113.594 27.1867 113.674 27.8267 113.834 28.2C114.021 28.5733 114.301 28.76 114.674 28.76C115.181 28.76 115.754 28.4133 116.394 27.72C117.034 27 117.661 26.04 118.274 24.84C118.914 23.6133 119.501 22.24 120.034 20.72C120.568 19.1733 120.994 17.5733 121.314 15.92C121.661 14.2667 121.834 12.6533 121.834 11.08C121.834 10.0133 121.741 9.31999 121.554 8.99999C121.368 8.67999 121.128 8.51999 120.834 8.51999ZM107.594 22.88C107.594 21.6267 107.768 20.3067 108.114 18.92C108.461 17.5333 108.981 16.1867 109.674 14.88C110.368 13.5467 111.248 12.3467 112.314 11.28C113.408 10.1867 114.674 9.31999 116.114 8.67999C117.554 8.03999 119.194 7.71999 121.034 7.71999C123.221 7.71999 124.901 8.29333 126.074 9.43999C127.248 10.5867 127.834 12.24 127.834 14.4C127.834 15.6533 127.661 16.9733 127.314 18.36C126.968 19.7467 126.448 21.1067 125.754 22.44C125.061 23.7467 124.168 24.9467 123.074 26.04C122.008 27.1067 120.754 27.96 119.314 28.6C117.874 29.24 116.234 29.56 114.394 29.56C112.208 29.56 110.528 28.9867 109.354 27.84C108.181 26.6933 107.594 25.04 107.594 22.88Z" fill="#960048"/>
<path d="M137.473 26.24C138.673 26.24 139.686 25.88 140.513 25.16C141.34 24.4133 142.046 23.4933 142.633 22.4L143.273 22.6C142.713 23.8267 142.006 24.9733 141.153 26.04C140.326 27.08 139.3 27.9333 138.073 28.6C136.846 29.24 135.34 29.56 133.553 29.56C132.033 29.56 130.753 29.28 129.713 28.72C128.673 28.1333 128.153 27.2533 128.153 26.08C128.153 25.12 128.406 24.2667 128.913 23.52C129.393 22.7467 130.033 22.0533 130.833 21.44C131.633 20.8 132.473 20.1867 133.353 19.6C134.26 19.0133 135.1 18.4133 135.873 17.8C136.673 17.16 137.326 16.4667 137.833 15.72C138.34 14.9733 138.593 14.1333 138.593 13.2C138.593 12.5333 138.433 12.0267 138.113 11.68C137.793 11.3067 137.313 11.12 136.673 11.12C135.82 11.12 134.913 11.44 133.953 12.08C133.02 12.72 132.126 13.8667 131.273 15.52L130.673 15.32C131.686 12.84 133.06 10.9867 134.793 9.75999C136.526 8.50666 138.526 7.87999 140.793 7.87999C142.153 7.87999 143.313 8.11999 144.273 8.59999C145.26 9.05332 145.753 9.81332 145.753 10.88C145.753 11.7867 145.5 12.6267 144.993 13.4C144.486 14.1467 143.833 14.88 143.033 15.6C142.26 16.2933 141.42 16.9733 140.513 17.64C139.633 18.3067 138.793 18.9733 137.993 19.64C137.193 20.3067 136.54 21.0133 136.033 21.76C135.553 22.5067 135.313 23.2933 135.313 24.12C135.313 24.8667 135.513 25.4133 135.913 25.76C136.313 26.08 136.833 26.24 137.473 26.24Z" fill="#960048"/>
</svg>
