<svg width="38" height="17" viewBox="0 0 38 17" fill="none" xmlns="http://www.w3.org/2000/svg">
<g clip-path="url(#clip0_13_934)">
<path d="M33.588 11.9956C33.3653 11.7964 33.0634 11.6845 32.7485 11.6845C32.4336 11.6845 32.1316 11.7964 31.9089 11.9956L29.7073 13.9641L29.6875 1.0625C29.6875 0.780707 29.5624 0.510456 29.3397 0.311199C29.117 0.111942 28.8149 0 28.5 0V0C28.1851 0 27.883 0.111942 27.6603 0.311199C27.4376 0.510456 27.3125 0.780707 27.3125 1.0625L27.3307 13.9542L25.1433 11.9956C24.9194 11.8021 24.6194 11.695 24.308 11.6974C23.9967 11.6998 23.6988 11.8116 23.4787 12.0086C23.2585 12.2056 23.1336 12.472 23.1309 12.7506C23.1282 13.0292 23.2479 13.2976 23.4642 13.498L26.5667 16.274C27.0864 16.7387 27.791 16.9998 28.5257 16.9998C29.2605 16.9998 29.9651 16.7387 30.4847 16.274L33.588 13.498C33.8107 13.2987 33.9357 13.0285 33.9357 12.7468C33.9357 12.4651 33.8107 12.1949 33.588 11.9956Z" fill="#A2004E"/>
</g>
<g clip-path="url(#clip1_13_934)">
<path d="M14.588 3.47876L11.4855 0.702805C10.9577 0.251717 10.256 0 9.52612 0C8.79626 0 8.09449 0.251717 7.56675 0.702805L4.4642 3.47876C4.24789 3.67915 4.1282 3.94754 4.1309 4.22612C4.13361 4.50471 4.2585 4.77119 4.47867 4.96819C4.69884 5.16519 4.99668 5.27693 5.30804 5.27935C5.6194 5.28177 5.91936 5.17468 6.14333 4.98113L8.34416 3.01197L8.36237 15.939C8.36237 16.2208 8.48748 16.4911 8.71018 16.6903C8.93288 16.8896 9.23493 17.0015 9.54987 17.0015C9.86482 17.0015 10.1669 16.8896 10.3896 16.6903C10.6123 16.4911 10.7374 16.2208 10.7374 15.939L10.7192 3.02189L12.9089 4.98113C13.0185 5.08261 13.1495 5.16356 13.2944 5.21924C13.4392 5.27493 13.5951 5.30424 13.7527 5.30546C13.9104 5.30669 14.0668 5.2798 14.2127 5.22638C14.3587 5.17296 14.4913 5.09406 14.6028 4.9943C14.7143 4.89454 14.8024 4.77591 14.8621 4.64534C14.9218 4.51476 14.9519 4.37485 14.9505 4.23377C14.9492 4.09269 14.9164 3.95327 14.8542 3.82364C14.7919 3.69401 14.7015 3.57677 14.588 3.47876Z" fill="#A2004E"/>
</g>
<defs>
<clipPath id="clip0_13_934">
<rect width="19" height="17" fill="white" transform="translate(19)"/>
</clipPath>
<clipPath id="clip1_13_934">
<rect width="19" height="17" fill="white"/>
</clipPath>
</defs>
</svg>
